<svg width="47" height="27" viewBox="0 0 47 27" fill="none" xmlns="http://www.w3.org/2000/svg">
<path d="M1.57514 0C0.73576 0 0 0.649153 0 1.4459V24.5789C0 25.3757 0.735361 26.0248 1.57514 26.0248H45.1867C46.026 26.0248 46.7618 25.3757 46.7618 24.5789V1.4459C46.7618 0.649171 46.0264 0 45.1867 0H1.57514ZM2.07855 1.92758H44.6834V4.30698L23.381 18.087L2.07855 4.30698V1.92758ZM2.07855 6.65652L13.0053 13.735L2.07855 22.8471V6.65652ZM44.6834 6.65652V22.8462L33.7566 13.7341L44.6834 6.65652ZM14.7598 14.8645L22.7806 20.0604L22.7802 20.0608C23.1401 20.2971 23.6221 20.2971 23.982 20.0608L32.0028 14.8649L43.0762 24.0966H3.68616L14.7595 14.8649L14.7598 14.8645Z" fill="#E5E5E5"/>
</svg>
