<svg width="36" height="36" viewBox="0 0 36 36" fill="none" xmlns="http://www.w3.org/2000/svg">
<path d="M30.0001 0H5.99987C4.40855 0 2.88255 0.632053 1.7573 1.7573C0.632052 2.88255 0 4.40855 0 5.99987V30.0001C0 31.5914 0.632052 33.1174 1.7573 34.2427C2.88255 35.3679 4.40855 36 5.99987 36H30.0001C31.5914 36 33.1174 35.3679 34.2427 34.2427C35.3679 33.1174 36 31.5914 36 30.0001V5.99987C36 4.40855 35.3679 2.88255 34.2427 1.7573C33.1174 0.632053 31.5914 0 30.0001 0V0ZM33.0002 30H32.9999C32.9999 30.7955 32.684 31.5587 32.1213 32.1212C31.5588 32.6839 30.7957 32.9998 30.0001 32.9998H5.99988C5.20435 32.9998 4.44122 32.6839 3.87872 32.1212C3.31597 31.5587 3.00007 30.7955 3.00007 30V5.99974C3.00007 5.20421 3.31597 4.44108 3.87872 3.87859C4.44122 3.31584 5.20435 2.99994 5.99988 2.99994H30.0001C30.7957 2.99994 31.5588 3.31584 32.1213 3.87859C32.684 4.44108 32.9999 5.20421 32.9999 5.99974L33.0002 30Z" fill="#E5E5E5"/>
<path d="M18 9C15.6132 9 13.324 9.94821 11.636 11.636C9.94827 13.324 9.00006 15.6131 9.00006 17.9999C9.00006 20.3868 9.94827 22.6759 11.636 24.3639C13.324 26.0517 15.6132 26.9999 18 26.9999C20.3868 26.9999 22.676 26.0517 24.364 24.3639C26.0517 22.6759 26.9999 20.3868 26.9999 17.9999C26.9999 15.6131 26.0517 13.324 24.364 11.636C22.676 9.94821 20.3868 9 18 9ZM18 23.9997C16.4087 23.9997 14.8827 23.3676 13.7574 22.2424C12.6322 21.1171 12.0001 19.5911 12.0001 17.9998C12.0001 16.4085 12.6322 14.8825 13.7574 13.7572C14.8827 12.632 16.4087 11.9999 18 11.9999C19.5913 11.9999 21.1173 12.632 22.2426 13.7572C23.3678 14.8825 23.9999 16.4085 23.9999 17.9998C23.9999 19.5911 23.3678 21.1171 22.2426 22.2424C21.1173 23.3676 19.5913 23.9997 18 23.9997Z" fill="#E5E5E5"/>
<path d="M30.0001 8.24974C30.0001 9.4925 28.9926 10.4997 27.7501 10.4997C26.5074 10.4997 25.5002 9.4925 25.5002 8.24974C25.5002 7.00723 26.5074 5.99976 27.7501 5.99976C28.9926 5.99976 30.0001 7.00723 30.0001 8.24974Z" fill="#E5E5E5"/>
</svg>
