<svg width="33" height="33" viewBox="0 0 33 33" fill="none" xmlns="http://www.w3.org/2000/svg">
<path d="M8.90475 12.5718H11V23.048H8.90475V12.5718Z" fill="#E4E4E4"/>
<path d="M8.90475 7.85681H11V9.95205H8.90475V7.85681Z" fill="#E4E4E4"/>
<path d="M16.2381 19.1191V17.8096C16.2381 16.2119 17.5215 14.9286 19.119 14.9286C20.7166 14.9286 22 16.212 22 17.8096V23.0477H24.0952V17.8096C24.0952 15.0595 21.869 12.8334 19.119 12.8334C18.0452 12.8334 17.05 13.1739 16.2381 13.75V12.5714H14.1429V23.0476H16.2381V19.1191Z" fill="#E4E4E4"/>
<path d="M33 0H0V33H33V0ZM30.9048 30.9048H2.09524V2.09524H30.9048V30.9048Z" fill="#E4E4E4"/>
</svg>
