<svg width="35" height="35" viewBox="0 0 35 35" fill="none" xmlns="http://www.w3.org/2000/svg">
<path d="M34.5952 0.704631C34.3235 0.362984 33.9324 0.137021 33.5005 0.0717837C33.0685 0.00654685 32.628 0.107102 32.2675 0.35325L28.9052 2.68355C27.2974 0.99547 25.0618 0.0473165 22.7292 0.0642001C20.4435 0.0681643 18.2526 0.976705 16.6365 2.59129C15.0205 4.20547 14.1105 6.39378 14.1065 8.67684C14.096 9.34356 14.1743 10.0092 14.3392 10.6553C10.2631 9.78213 7.87347 6.81651 6.88015 1.45889H6.88051C6.81917 1.11904 6.65897 0.805148 6.41975 0.555751C6.18053 0.306724 5.87276 0.133736 5.5354 0.0587752C5.20598 -0.0309622 4.85671 -0.0176266 4.53451 0.0966169C4.21266 0.211222 3.93376 0.421685 3.73531 0.699553C3.61624 0.880465 -5.99931 14.2045 7.9301 25.5553C6.59077 28.4643 2.56631 30.9078 0.973336 31.6624C0.620824 31.8444 0.338669 32.1374 0.170172 32.4963C0.00167515 32.8549 -0.0430681 33.2593 0.0420857 33.6464C0.131567 34.0323 0.349494 34.3769 0.660514 34.6227C0.971895 34.8688 1.3576 35.0018 1.75452 35H4.78565C22.5018 35 30.5396 26.2169 30.7724 6.58397L34.4396 3.09147V3.09111C34.768 2.78983 34.9675 2.37358 34.9964 1.92882C35.0252 1.4841 34.8813 1.04551 34.5948 0.704257L34.5952 0.704631ZM7.63585 31.4299C9.44099 29.8799 11.1895 27.8134 11.7119 25.3801H11.7116C11.792 25.0496 11.7744 24.7033 11.6603 24.3828C11.5463 24.0624 11.3414 23.7824 11.0704 23.577C2.7941 17.3772 3.31154 10.5416 4.72375 6.46557C6.93734 11.7045 11.1325 14.3808 17.0761 14.4374C17.3961 14.4439 17.7115 14.3602 17.986 14.1955C18.2603 14.0312 18.4829 13.7926 18.6279 13.5076C18.7993 13.2322 18.8798 12.9104 18.8585 12.5868C18.8372 12.2635 18.7149 11.9546 18.5089 11.7045C17.8745 10.8432 17.5303 9.80278 17.526 8.73349C17.5274 7.37626 18.0679 6.07457 19.0288 5.11479C19.99 4.15473 21.2929 3.61483 22.6521 3.61344C24.4071 3.60263 26.0409 4.50757 26.9609 6.00067C27.0273 6.10698 27.1073 6.20392 27.1986 6.2897C27.1575 23.0496 21.3849 30.5577 7.63609 31.4305L7.63585 31.4299Z" fill="#E5E5E5"/>
</svg>
