<svg width="116" height="25" viewBox="0 0 116 25" fill="none" xmlns="http://www.w3.org/2000/svg">
<path d="M0.435 0.499998H5.93L8.38 18.035H8.45L10.9 0.499998H16.395V25H12.755V6.45H12.685L9.885 25H6.665L3.865 6.45H3.795V25H0.435V0.499998ZM19.268 0.499998H23.118V25H19.268V0.499998ZM26.0014 0.499998H29.8514V21.5H36.1864V25H26.0014V0.499998ZM38.0327 0.499998H41.8827V10.825L46.7827 0.499998H50.6327L46.0477 9.495L50.7027 25H46.6777L43.4227 14.08L41.8827 17.195V25H38.0327V0.499998ZM56.0598 14.57L51.4048 0.499998H55.4998L58.1248 9.495H58.1948L60.8198 0.499998H64.5648L59.9098 14.57V25H56.0598V14.57ZM70.9947 0.499998H74.7047L76.4197 19.33H76.4897L78.3097 0.499998H82.5097L84.3297 19.33H84.3997L86.1147 0.499998H89.4397L86.9547 25H82.1597L80.4097 8.48H80.3397L78.5897 25H73.4797L70.9947 0.499998ZM93.8836 0.499998H99.0986L103.089 25H99.2386L98.5386 20.135V20.205H94.1636L93.4636 25H89.8936L93.8836 0.499998ZM98.0836 16.88L96.3686 4.77H96.2986L94.6186 16.88H98.0836ZM106.885 14.57L102.23 0.499998H106.325L108.95 9.495H109.02L111.645 0.499998H115.39L110.735 14.57V25H106.885V14.57Z" fill="#615C55"/>
</svg>
